<?xml version="1.0" encoding="utf-8"?>
<!-- Generator: Adobe Illustrator 27.5.0, SVG Export Plug-In . SVG Version: 6.00 Build 0)  -->
<svg version="1.1" id="Layer_1" xmlns="http://www.w3.org/2000/svg" xmlns:xlink="http://www.w3.org/1999/xlink" x="0px" y="0px"
	 viewBox="0 0 4000 4000" style="enable-background:new 0 0 4000 4000;" xml:space="preserve">
<g>
	<g>
		<rect style="fill:#FEF268;" width="4000" height="4000"/>
	</g>
	<g>
		<g style="opacity:0.25;">
			<g>
				<ellipse style="fill:#303030;" cx="1999.829" cy="3228.301" rx="852.843" ry="128.496"/>
			</g>
		</g>
		<g>
			<g>
				<path style="fill:#FFD72F;" d="M1691.78,2254.454c-157.688-16.887-248.594,88.258-172.861,305.899"/>
			</g>
			<g>
				<path style="fill:#FFD72F;" d="M2022.657,3127.05c-498.38-18.645-584.149-429.307-463.421-699.537
					c34.409-77.082,85.599-142.721,148.824-184.588v-0.042c-504.906-63.394-747.083-406.51-564.613-777.297
					c3.559-6.907,8.644-66.657,29.196-148.188c10.086-40.13,23.985-85.556,43.308-132.551
					c70.894-172.893,215.056-367.227,515.331-398.713c2.415-0.297,4.83-0.551,7.246-0.763c0,0-31.485-61.784,2.966-125.22
					c0,0,4.492,3.983,12.416,10.509c26.612,21.993,91.871,72.717,153.146,95.388c471.047-8.094,772.042,232.049,887.43,519.567
					c0,0.042,0.042,0.042,0.042,0.085c146.79,365.787-6.907,808.358-492.914,914.128c6.696-0.933,215.565-28.858,427.698,178.317
					c0,0,87.293-11.653,107.761-56.105c20.51-44.452,45.384-48.224,65.555-13.221c4.577,7.924,8.221,18.857,10.636,31.782v0.042
					c8.263,44.156,2.119,111.151-30.807,156.959l34.113-11.992C2925.936,2846.948,2519.384,3153.493,2022.657,3127.05z"/>
			</g>
			<g style="opacity:0.7;">
				<path style="fill:#FFFFFF;" d="M1745.266,817.324c0,0-387.441,79.963-529.315,367.524
					c70.894-172.893,215.056-367.227,515.331-398.713L1745.266,817.324z"/>
			</g>
			<g style="opacity:0.7;">
				<path style="fill:#FFFFFF;" d="M2794.486,1285.617c-201.624-302.392-496.473-468.717-900.44-475.878
					c-136.577-35.723-153.823-130.263-153.823-130.263l13.687-8.814c26.612,21.993,91.871,72.717,153.146,95.388
					C2378.103,757.956,2679.097,998.098,2794.486,1285.617z"/>
			</g>
			<g>
				<path style="fill:#FFB133;" d="M2196.74,2331.564c0,0-57.692,165.93,125.119,259.226
					c182.811,93.297,377.388,89.935,317.712-3.362c0,0,192.477,3.782,179.449-44.967c0,0,23.835,40.498-24.165,55.053
					c-48,14.555-109.896,20.172-109.896,20.172s90.587,36.541-6.923,84.461C2458.021,2789.15,2046.717,2600.111,2196.74,2331.564z"
					/>
			</g>
			<g>
				<path style="fill:#FFB133;" d="M2022.657,3127.05c-498.38-18.645-584.149-429.307-463.421-699.537l32.545-31.739
					c0,0-218.446,472.785,341.335,581.224c559.783,108.439,777.382-297.816,777.382-297.816s64.114-35.681-10.256-62.123
					c0,0,134.119-14.917,126.661-50.639c-7.458-35.722-36.867-59.622-36.867-59.622s46.867,10.298,33.519-23.476
					c-7.967-20.086-13.687-25.892-17.035-27.333c17.458-1.017,96.362-11.357,106.744-115.346
					c8.263,44.156,2.119,111.151-30.807,156.959l34.113-11.992C2925.936,2846.948,2519.384,3153.493,2022.657,3127.05z"/>
			</g>
			<g>
				<path style="fill:#FFB133;" d="M1449.068,1771.682c0,0,59.808,181.583,323.938,177.8s226.823-215.59,226.823-215.59"/>
			</g>
			<g>
				<path style="fill:#FFB133;" d="M2816.227,1347.504c83.834,877.764-1514.746,1059.021-1733.298,422.53
					c0,0,14.729,298.062,374.257,411.059s916.095,0,916.095,0C2734.849,2060.391,2898.747,1794.466,2816.227,1347.504z"/>
			</g>
			<g>
				<path style="fill:#FEA531;" d="M1971.594,3123.66l-20.128,26.146l-35.977,46.74l-28.01,36.4
					c-79.031,9.747-156.069-5.678-156.069-5.678c-46.656,3.771-93.311-11.653-38.477-59.241
					c12.84-11.145,27.163-21.061,41.528-29.663c47.121-28.35,95.091-43.096,95.091-43.096S1901.038,3133.492,1971.594,3123.66z"/>
			</g>
			<g>
				<path style="fill:#FEA531;" d="M2475.27,3191.334c-109.074,71.233-472.192,87.633-510.626,52.334
					c0,0-52.716,5.382-77.166-10.721c-6.441-4.237-10.89-9.958-11.95-17.67c-1.95-14.365,17.077-31.062,41.062-46.063
					c11.102-6.949,23.264-13.56,34.875-19.407c27.799-13.984,52.588-23.646,52.588-23.646l397.653-64.241l87.464-14.111
					C2489.171,3047.808,2584.304,3120.101,2475.27,3191.334z"/>
			</g>
			<g>
				<path style="fill:#F27B22;" d="M2475.27,3191.334c-109.074,71.233-472.192,87.633-510.626,52.334
					c0,0-52.716,5.382-77.166-10.721c-79.031,9.747-156.069-5.678-156.069-5.678c-46.656,3.771-93.311-11.653-38.477-59.241
					c12.84-11.145,27.163-21.061,41.528-29.663c3.051,4.11,4.534,8.983,4.068,14.662c-5.043,64.242,178.063,16.188,178.063,16.188
					c-6.823,11.95-6.229,20.807-1.102,27.333c17.416,22.586,87.633,17.925,87.633,17.925
					c198.403,42.291,572.071-106.786,386.212-130.432l12.373-22.12l87.464-14.111
					C2489.171,3047.808,2584.304,3120.101,2475.27,3191.334z"/>
			</g>
			<g>
				<path style="fill:#FFA52D;" d="M1999.308,1780.014c-40.808,44.41-111.787,106.744-248.364,123.44
					c-129.796,15.891-238.109-50.257-286.544-109.88c-0.042,0-0.042-0.042-0.085-0.042c-25.171-30.977-34.198-60.216-21.612-75.174
					c0,0,79.667-114.118,205.056-159.418c33.01-11.907,68.987-13.136,102.719-3.432c48.435,13.899,125.983,44.833,202.047,111.914
					c15.891,14.027,31.697,29.62,47.207,46.952C2016.47,1733.104,2016.3,1761.538,1999.308,1780.014z"/>
			</g>
			<g>
				<path style="fill:#F27B22;" d="M1999.308,1780.014c-40.808,44.41-111.787,106.744-248.364,123.44
					c-129.796,15.891-238.109-50.257-286.544-109.88c185.944,105.219,353.667,95.006,488.125-126.152
					c15.891,14.027,31.697,29.62,47.207,46.952C2016.47,1733.104,2016.3,1761.538,1999.308,1780.014z"/>
			</g>
			<g style="opacity:0.7;">
				<path style="fill:#FFFFFF;" d="M1993.324,1721.284c-240.175-177.268-342.214-190.766-536.139-4.412
					c0,0,141.206-164.162,226.622-172.856c85.417-8.694,250.261,99.101,251.522,101.623"/>
			</g>
			<g>
				<path style="fill:#3D0103;" d="M1712.107,1918.548c-134.758,0-242.434-82.056-276.147-144.209
					c-14.251-26.27-15.444-48.86-3.391-63.708c6.36-8.987,85.796-118.442,210.871-163.638
					c35.747-12.917,73.972-14.204,110.535-3.718c55.217,15.832,161.802,58.017,255.256,162.637
					c21.199,23.728,20.964,59.277-0.547,82.688c-42.727,46.501-115.771,110.31-256.199,127.485
					C1738.797,1917.757,1725.32,1918.546,1712.107,1918.548z M1704.378,1561.691c-17.683,0-35.313,3.076-52.295,9.214
					c-119.941,43.34-198.203,153.616-198.979,154.724c-0.212,0.305-0.442,0.606-0.681,0.889c-5.051,6.016-2.795,19.695,5.886,35.701
					c33.691,62.112,149.507,145.957,291.091,128.628c132.092-16.155,200.557-75.908,240.564-119.448
					c12.625-13.74,12.756-34.612,0.308-48.547c-89.199-99.854-190.725-140.059-243.303-155.137
					C1732.95,1563.695,1718.645,1561.691,1704.378,1561.691z M1442.686,1718.343h0.049H1442.686z"/>
			</g>
			<g>
				<path style="fill:#3D0103;" d="M1480.57,1733.553c130.531,69.082,278.533,62.861,416.272,19.139
					c19.797-5.842,39.188-12.877,58.706-19.647c4.787-1.838,10.208,0.662,11.86,5.533c1.548,4.519-0.703,9.431-5.017,11.289
					c-19.348,8.396-38.871,16.338-58.76,23.406c-129.18,46.578-279.133,56.203-404.087-8.353
					c-9.465-4.913-18.667-10.326-27.92-15.56c-4.358-2.466-5.894-7.995-3.428-12.356
					C1470.677,1732.596,1476.232,1731.173,1480.57,1733.553L1480.57,1733.553z"/>
			</g>
			<g>
				<g>
					<ellipse style="fill:#3D0103;" cx="1403.802" cy="1450.01" rx="160.244" ry="188.064"/>
				</g>
				<g>
					<ellipse style="fill:#FCFCFC;" cx="1332.806" cy="1406.548" rx="46.333" ry="59.043"/>
				</g>
				<g style="opacity:0.4;">
					<g>
						<path style="fill:#FCFCFC;" d="M1493.627,1555.39c5.717,15.62-11.273,36.196-37.947,45.958
							c-26.674,9.762-52.931,5.013-58.648-10.607c-5.716-15.62,13.382-29.283,40.056-39.045S1487.911,1539.77,1493.627,1555.39z"/>
					</g>
				</g>
			</g>
			<g>
				<g>
					<ellipse style="fill:#3D0103;" cx="2124.958" cy="1450.01" rx="160.244" ry="188.064"/>
				</g>
				<g>
					<ellipse style="fill:#FCFCFC;" cx="2053.963" cy="1406.548" rx="46.333" ry="59.043"/>
				</g>
				<g style="opacity:0.4;">
					<g>
						<path style="fill:#FCFCFC;" d="M2214.783,1555.39c5.717,15.62-11.273,36.196-37.947,45.958
							c-26.674,9.762-52.931,5.013-58.648-10.607s13.382-29.283,40.056-39.045S2209.067,1539.77,2214.783,1555.39z"/>
					</g>
				</g>
			</g>
			<g>
				<path style="fill:#3D0103;" d="M2244.515,2227.418c-8.218,0-15.435-5.989-16.729-14.363c-1.43-9.25,4.907-17.91,14.16-19.341
					c18.542-2.869,37.271-6.353,55.667-10.356c8.545-2.078,17.407,2.769,20.144,11.294c2.859,8.916-2.048,18.459-10.962,21.318
					c-0.559,0.178-1.145,0.334-1.741,0.459v0.005c-19.138,4.17-38.628,7.798-57.927,10.781
					C2246.25,2227.352,2245.376,2227.418,2244.515,2227.418z"/>
			</g>
			<g>
				<path style="fill:#3D0103;" d="M1800.216,2260.748c-31.339,0.761-62.799,0.468-94.331-1.052
					c-24.145-2.173-19.63-37.616,4.317-33.628c30.031,6.313,60.427,11.494,91.054,15.647
					C1812.783,2243.36,1811.807,2260.392,1800.216,2260.748L1800.216,2260.748z"/>
			</g>
			<g>
				<path style="fill:#3D0103;" d="M1753.851,778.092c8.975,19.908,20.737,39.707,33.987,57.124
					c5.385,6.151,4.608,15.682-1.97,20.645c-2.095,1.597-4.553,2.519-6.992,2.793l-47.529,5.212l10.447-15.498
					c6.275,23.733,22.004,44.496,41.05,59.751c4.119,3.408,4.695,9.512,1.284,13.63c-3.242,3.918-8.955,4.609-13.047,1.733
					c-5.903-4.175-11.721-8.555-17.034-13.555c-14.949-13.714-27.162-30.652-34.749-49.573c-0.737-1.885-1.328-3.452-2.07-6.006
					c-1.875-6.428,1.819-13.157,8.245-15.032c0.628-0.215,1.551-0.334,2.205-0.469c0,0,47.024-8.655,47.024-8.655l-8.962,23.438
					c-8.245-9.319-15.874-19.058-22.874-29.177c-7.229-10.444-13.503-20.361-19.624-31.789
					C1713.069,771.671,1743.908,756.906,1753.851,778.092L1753.851,778.092z"/>
			</g>
			<g>
				<path style="fill:#3D0103;" d="M2081.131,3145.555c-19.69,0-39.429-0.52-59.238-1.572
					c-141.582-5.322-258.699-41.86-348.103-108.604c-78.237-58.408-133.938-140.354-161.082-236.98
					c-28.647-101.987-24.988-217.117,10.305-324.177c29.937-90.808,79.727-167.568,142.249-220.33
					c-256.494-41.101-453.64-159.297-544.458-327.82c-75.012-139.192-72.48-305.127,7.104-467.297
					c0.823-3.042,2.388-12.952,3.901-22.546c9.297-58.909,33.994-215.388,118.926-360.462
					c103.674-177.087,259.822-279.578,464.36-304.88c-7.561-26.123-14.001-71.86,11.504-118.823
					c2.466-4.543,6.873-7.71,11.965-8.606c5.098-0.894,10.317,0.588,14.18,4.016c0.83,0.735,82.617,72.849,157.273,101.575
					c267.881-3.865,501.14,71.841,674.9,219.268c154.683,131.243,252.346,310.855,274.998,505.747
					c19.272,165.818-19.231,328.777-108.418,458.862c-80.257,117.061-197.957,203.914-343.977,254.771
					c83.56,13.87,205.105,55.403,327.446,172.344c24.988-4.731,74.705-19.014,86.709-45.09
					c13.855-30.022,30.771-45.686,50.293-46.57c11.946-0.539,29.553,4.566,45.347,31.975
					c18.542,32.071,24.041,106.533-0.232,168.313c3.218,0.098,6.384,1.111,9.106,2.986c4.463,3.076,7.185,8.101,7.324,13.518
					c3.818,147.307-60.481,293.047-181.052,410.376C2589.498,3054.127,2341.917,3145.546,2081.131,3145.555z M1747.969,687.765
					c-15.31,46.924,4.714,88.015,5.691,89.971c2.497,4.998,2.388,10.935-0.322,15.823c-2.708,4.888-7.637,8.157-13.198,8.687
					c-219.522,20.964-497.449,148.887-574.844,639.268c-3.367,21.328-4.346,27.1-6.772,31.821
					c-75.894,154.224-78.662,305.308-7.876,436.658c90.298,167.561,294.238,282.763,559.524,316.072
					c8.479,1.064,14.839,8.274,14.839,16.819c0,5.684-2.849,11.035-7.588,14.175c-149.492,99.038-226.685,337.771-172.075,532.175
					c32.122,114.358,136.929,308.11,477.944,320.879c0.088,0.002,0.178,0.007,0.266,0.012c19.277,1.025,38.555,1.536,57.707,1.536
					c252.073,0.01,490.821-87.891,647.554-240.408c107.249-104.363,167.304-231.982,170.796-361.714l-11.536,4.055
					c-6.975,2.451-14.753,0.093-19.187-5.83c-4.438-5.925-4.517-14.045-0.195-20.056c39.858-55.442,35.061-143.071,19.258-170.403
					c-6.985-12.119-12.581-15.166-14.453-15.056c-3.049,0.137-11.367,5.935-21.038,26.895
					c-23.679,51.433-111.028,64.485-120.908,65.806c-5.168,0.703-10.362-1.035-14.087-4.675
					c-204.863-200.076-405.09-174.819-413.516-173.655c-9.011,1.294-17.427-4.839-19.026-13.813
					c-1.599-8.97,4.179-17.6,13.083-19.536c411.125-89.47,561.541-418.699,528.23-705.29
					c-39.707-341.628-344.194-704.912-918.894-694.98c-2.126,0.066-4.199-0.32-6.177-1.052
					C1840.725,759.559,1777.859,712.081,1747.969,687.765z M1128.24,1458.102c-0.02,0.034-0.083,0.154-0.163,0.334
					C1128.13,1458.326,1128.186,1458.212,1128.24,1458.102z"/>
			</g>
			<g>
				<path style="fill:#3D0103;" d="M1684.879,2280.88c-11.668,17.372-55.554,89.381-43.065,106.807
					c5.428,7.763,19.333-6.892,23.292-11.57c8.557-11.644,27.244-3.645,24.885,10.423c-4.635,26.087-21.91,171.944,31.773,97.658
					c5.961-9.153,20.762-3.92,19.907,6.76c-0.442,25.352,1.391,58.093,22.934,74.802c4.293,3.044,5.304,8.994,2.259,13.286
					c-10.608,12.869-26.244-9.112-31.446-17.343c-12.589-22.169-15.668-46.885-15.549-71.961c0,0,20.167,6.382,20.167,6.382
					c-5.015,7.837-10.159,14.324-17.166,20.701c-15.923,15.495-39.707,16.753-52.827-3.321
					c-14.338-25.426-11.834-55.378-11.654-82.721c0.699-16.26,2.023-32.093,4.105-48.428l24.885,10.42
					c-12.905,17.611-37.552,35.115-59.507,21.333c-22.113-13.167-20.651-40.381-14.532-60.593
					c9.907-33.433,25.481-61.705,43.133-91.137c4.915-7.969,15.359-10.447,23.331-5.532
					C1688.041,2261.891,1690.36,2272.931,1684.879,2280.88L1684.879,2280.88z"/>
			</g>
			<g>
				<path style="fill:#3D0103;" d="M2216.8,2320.533c-35.753,61.772-49.227,142.555-18.223,208.56
					c22.259,49.648,66.866,87.108,113.382,114.58c80.514,45.089,172.602,77.461,265.712,70.028
					c46.382-4.433,105.002-20.694,132.347-59.572c0.548-1.005,0.644-1.93,0.527-0.929c-0.059,0.676-0.103,1.782,0.754,4.089
					c0.112,0.264,0.242,0.518,0.383,0.759c-6.377-11.554-20.015-20.356-32.537-25.325c-16.427-6.555-11.78-30.819,5.586-31.167
					c25.186-0.606,146.58-5.949,124.912-48.996c-6.581-12.97-22.9-26.001-38.14-34.49c-13.49-7.535-6.01-28.308,8.943-25.925
					c9.619,1.148,23.189,2.26,29.912-3.125c0.273-0.125,0.422-0.87,0.563-0.965c0.005-3.407-2.423-6.975-5.371-10.95
					c-8.369-10.572-19.942-19.871-31.062-27.6c-5.762-3.669-7.356-11.432-3.481-17.063c3.696-5.388,10.999-6.838,16.472-3.372
					c19.355,13.287,39.112,26.059,48.26,49.206c8.523,27.548-18.151,42.638-41.952,42.234c-6.035,0.155-11.335-0.019-17.727-0.856
					l8.518-26.162c34.021,16.671,76.264,57.255,48.393,97.066c-20.667,25.531-55.3,31.361-85.274,37.205
					c-20.862,3.383-41.197,5.316-62.515,6.056l5.076-31.37c3.406,1.23,5.623,2.207,8.281,3.43
					c17.44,8.306,34.256,21.096,42.847,38.765c9.391,27.012-25.059,52.667-44.081,65.291
					c-107.364,65.072-241.697,39.006-349.063-10.76c-72.114-32.758-144.152-81.957-177.232-157.754
					c-29.827-66.063-20.776-143.8,10.552-207.488c4.516-9.143,9.072-17.666,15.053-26.78c3.667-5.588,11.17-7.146,16.755-3.479
					C2219.029,2307.365,2220.495,2314.973,2216.8,2320.533L2216.8,2320.533z"/>
			</g>
			<g>
				<path style="fill:#3D0103;" d="M1518.919,2577.308c-7.014,0-13.574-4.387-16.008-11.384
					c-51.214-147.175-23.057-227.046,9.582-268.132c37.573-47.297,101.885-68.687,181.091-60.19
					c9.309,0.996,16.047,9.351,15.049,18.657c-0.996,9.309-9.348,16.047-18.657,15.049c-68.22-7.297-120.415,9.143-150.938,47.571
					c-38.655,48.66-40.115,132.437-4.111,235.903c3.076,8.843-1.597,18.503-10.437,21.58
					C1522.647,2577.003,1520.767,2577.308,1518.919,2577.308z"/>
			</g>
			<g>
				<path style="fill:#3D0103;" d="M2091.24,3278.412c-50.996,0-106.399-3.582-131.091-17.358
					c-25.32,1.812-95.122,2.527-101.396-43.474c-3.276-24.033,18.655-47.363,71.111-75.645
					c33.286-17.947,66.619-31.021,68.022-31.567c8.716-3.408,18.542,0.901,21.951,9.622c3.406,8.718-0.901,18.547-9.617,21.956
					c-60.403,23.608-116.582,57.61-117.864,71.331c1.57,11.34,39.219,16.66,70.571,13.518c4.795-0.483,9.614,1.106,13.176,4.375
					c11.677,10.183,93.562,19.089,216.892,9.312c123.564-9.792,228.167-34.063,272.986-63.337
					c28.838-18.835,43.858-38.628,44.644-58.826c1.216-31.265-31.438-56.787-31.768-57.041c-7.4-5.701-8.816-16.328-3.142-23.745
					c5.674-7.417,16.26-8.87,23.694-3.215c1.914,1.452,46.838,36.162,45.1,85.061c-1.135,31.907-21.318,60.891-59.988,86.15
					c-74.346,48.56-240.554,64.951-289.722,68.816C2185.101,3275.106,2140.203,3278.412,2091.24,3278.412z"/>
			</g>
			<g>
				<path style="fill:#3D0103;" d="M1950.416,3234.439c44.291-51.94,162.021-72.879,227.829-82.344
					c12-1.564,15.34,15.86,3.459,18.731c-27.615,5.697-57.564,12.799-84.348,20.965c-35.591,11.354-71.346,24.518-101.816,46.01
					c-5.891,4.219-13.452,10.617-16.672,15.071C1966.294,3271.302,1938.714,3253.536,1950.416,3234.439L1950.416,3234.439z"/>
			</g>
			<g>
				<path style="fill:#3D0103;" d="M1831.612,3253.151c-50.166,0-90.979-6.926-101.187-8.816
					c-20.84,1.421-64.878,0.869-76.706-27.276c-7.651-18.208,1.809-39.018,28.118-61.853
					c56.895-49.37,139.236-75.066,142.715-76.135c8.953-2.749,18.423,2.271,21.177,11.211c2.756,8.943-2.261,18.428-11.204,21.189
					c-0.784,0.242-79.075,24.741-130.469,69.341c-16.353,14.189-18.603,21.609-18.909,23.257c3.086,3.318,18.933,8.394,44.885,6.301
					c1.563-0.127,3.15-0.034,4.695,0.273c0.742,0.149,75.456,14.766,150.681,5.474c9.272-1.16,17.754,5.449,18.901,14.741
					c1.15,9.292-5.452,17.754-14.741,18.901C1869.693,3252.218,1850.017,3253.151,1831.612,3253.151z M1685.1,3204.425h0.049H1685.1
					z"/>
			</g>
			<g>
				<path style="fill:#3D0103;" d="M1720.428,3217.286c38.081-35.245,87.817-56.132,138.65-63.985
					c10.329-1.578,13.582,13.527,3.474,16.292c-11.64,2.996-23.178,6.264-34.26,10.735c-32.153,12.607-62.778,31.545-86.062,57.087
					C1728.594,3252.655,1706.295,3232.155,1720.428,3217.286L1720.428,3217.286z"/>
			</g>
			<g style="opacity:0.7;">
				<path style="fill:#FFFFFF;" d="M2285.717,2231.315c152.569-10.674,297.683,44.424,432.862,187.171
					C2573.4,2314.266,2429.162,2254.173,2285.717,2231.315z"/>
			</g>
			<g style="opacity:0.7;">
				<path style="fill:#FFFFFF;" d="M2743.478,2405.878c0,0,102.437-10.061,121.033-81.622
					C2884.54,2385.801,2834.319,2407.39,2743.478,2405.878z"/>
			</g>
		</g>
	</g>
</g>
</svg>
